<?xml version="1.0" standalone="no"?>
<!DOCTYPE svg PUBLIC "-//W3C//DTD SVG 20010904//EN"
 "http://www.w3.org/TR/2001/REC-SVG-20010904/DTD/svg10.dtd">
<svg version="1.0" xmlns="http://www.w3.org/2000/svg"
 width="256.000000pt" height="256.000000pt" viewBox="0 0 256.000000 256.000000"
 preserveAspectRatio="xMidYMid meet">
<metadata>
Created by potrace 1.14, written by Peter Selinger 2001-2017
</metadata>
<g transform="translate(0.000000,256.000000) scale(0.100000,-0.100000)"
fill="#000000" stroke="none">
<path d="M2163 2532 c-4 -9 -9 -19 -13 -22 -3 -3 -44 -68 -90 -145 -144 -241
-149 -247 -172 -239 -40 12 -134 12 -171 -1 -42 -14 -49 -9 -79 60 -7 17 -15
32 -18 35 -3 3 -18 30 -34 60 -103 198 -121 228 -131 218 -6 -5 47 -110 157
-316 49 -91 55 -122 22 -122 -22 0 -74 -32 -74 -46 0 -7 -37 -10 -122 -8 -188
5 -790 4 -908 -1 -58 -2 -169 -6 -248 -9 -157 -6 -194 -17 -237 -68 -24 -28
-27 -40 -28 -98 0 -24 10 -334 18 -545 2 -55 7 -178 11 -274 9 -252 9 -255 29
-288 26 -44 122 -97 170 -94 2 0 20 -6 40 -15 19 -8 35 -12 35 -9 0 3 9 1 21
-6 21 -11 21 -11 -12 -45 -29 -30 -31 -36 -19 -48 16 -16 31 -19 71 -17 36 2
61 24 61 54 0 15 3 27 5 27 3 0 53 -14 112 -30 58 -17 124 -35 146 -41 22 -7
54 -16 70 -21 17 -5 98 -27 180 -49 83 -23 204 -56 270 -75 66 -19 131 -37
145 -40 14 -3 39 -9 55 -15 39 -12 393 -110 423 -117 12 -2 25 -8 28 -13 10
-18 13 -49 3 -54 -13 -9 -11 -47 5 -67 26 -35 128 -52 154 -26 18 18 14 63 -8
83 -29 26 -17 34 36 24 104 -20 220 14 260 76 15 23 140 501 149 570 2 17 6
77 10 135 6 116 12 211 20 340 12 182 26 450 29 565 3 77 -9 103 -62 135 -67
41 -94 44 -414 49 -25 1 -38 6 -38 15 0 7 -16 21 -35 30 -69 33 -68 37 65 253
66 108 120 203 120 210 0 8 4 12 9 9 5 -3 11 0 14 8 3 8 -1 17 -9 20 -9 3 -17
-2 -21 -12z"/>
</g>
</svg>
