<?xml version="1.0" encoding="utf-8"?>
<!-- Generator: Adobe Illustrator 24.0.0, SVG Export Plug-In . SVG Version: 6.00 Build 0)  -->
<svg version="1.1" id="Layer_1" xmlns="http://www.w3.org/2000/svg" xmlns:xlink="http://www.w3.org/1999/xlink" x="0px" y="0px"
	 viewBox="0 0 86.96 12.64" style="enable-background:new 0 0 86.96 12.64;" xml:space="preserve">
<g>
	<g id="_x3C_Group_x3E__1_">
		<path style="fill:#FFFFFF;" d="M12.76,5.73c-0.11-2.1-0.83-3.64-1.81-4.48C9.89,0.34,7.92-0.01,6.39,0
			C4.86-0.01,2.88,0.34,1.82,1.25c-0.98,0.84-1.7,2.38-1.81,4.48c-0.1,1.97,0.33,4.12,1.45,5.34c1.08,1.2,3.25,1.58,4.92,1.57
			c0,0,0,0,0,0h0c1.68,0,3.84-0.38,4.92-1.57C12.43,9.85,12.87,7.7,12.76,5.73z M6.03,0.53c0.22-0.01,0.26-0.01,0.36-0.01
			c0.1,0,0.14,0,0.36,0.01l0.01,4.59c-0.06,0-0.66,0-0.73,0L6.03,0.53z M0.87,7.66C0.8,6.87,0.57,3.99,1.71,2.35
			C2.2,1.64,2.92,1.16,3.65,0.91c1.01-0.35,2.21-0.37,2.21-0.37C5.39,1.69,4.42,4.17,4.23,4.72C4.01,5.39,3.81,5.77,3.61,6.99
			c-0.12,1-0.34,3.48-0.4,4.56C1.86,10.9,1.05,9.68,0.87,7.66z M9.43,11.61c-0.93,0.4-2.09,0.49-3.04,0.5
			c-0.95-0.02-2.11-0.11-3.04-0.5c0,0,0,0,0,0c0.31-0.83,1.8-4.4,2.62-5.8l0,0l0,0c0.07,0,0.78,0,0.84,0l0,0l0,0
			C7.62,7.21,9.12,10.79,9.43,11.61C9.43,11.61,9.43,11.61,9.43,11.61z M11.9,7.66c-0.17,2.02-0.99,3.24-2.34,3.89
			c-0.06-1.08-0.28-3.57-0.4-4.56c-0.19-1.22-0.39-1.6-0.62-2.27C8.35,4.17,7.38,1.69,6.91,0.54c0,0,1.21,0.02,2.21,0.37
			c0.73,0.25,1.44,0.73,1.94,1.44C12.2,3.99,11.97,6.87,11.9,7.66z"/>
		<g>
			<polyline style="fill:#FFFFFF;" points="20.56,1 23.44,1 29.86,11.64 26.83,11.64 21.98,3.6 19.43,7.83 23.58,7.83 24.79,9.84 
				18.22,9.84 17.14,11.64 14.14,11.64 20.56,1 			"/>
			<path style="fill:#FFFFFF;" d="M60.22,11.64h-2.6V1h9.75c3.39,0,4.26,4.5,1.89,6.06c1.04,0.38,1.2,1.69,1.25,2.11l0.08,2.47
				h-2.57l-0.08-2.18c-0.07-0.93-0.65-1.57-1.6-1.57H61.4l-0.51-2.21h5.74c0.89,0,1.41-0.42,1.41-1.21c0-0.75-0.52-1.2-1.41-1.2
				h-6.39L60.22,11.64"/>
			<path style="fill:#FFFFFF;" d="M49.63,11.64h2.38c2.79,0,3.91-1.54,3.91-4.05V1H53.3v7.04c-0.01,1.34-0.94,1.51-1.78,1.53h-3.76
				c-0.85-0.02-1.77-0.2-1.78-1.53V1h-2.62v6.59c0,2.51,1.13,4.05,3.91,4.05H49.63"/>
			<path style="fill:#FFFFFF;" d="M32.33,6.32V4.99c0.03-0.91,0.2-1.81,1.47-1.8h8.01V1.01h-8.04C31.26,1,29.72,2.12,29.69,4.91
				v2.81c0.03,2.79,1.57,3.91,4.08,3.91h8.04V9.46H33.8c-1.27,0-1.45-0.9-1.47-1.81V6.32"/>
			<polyline style="fill:#FFFFFF;" points="77.66,1 80.55,1 86.96,11.64 83.93,11.64 79.09,3.6 76.54,7.83 80.69,7.83 81.9,9.84 
				75.33,9.84 74.25,11.64 71.25,11.64 77.66,1 			"/>
		</g>
	</g>
</g>
</svg>
