{
	"asset": {
		"generator": "Khronos glTF Blender I/O v3.6.27",
		"version": "2.0"
	},
	"scene": 0,
	"scenes": [
		{
			"extras": {
				"air_props": {},
				"SimpleBake_Props": {},
				"export_folder_path": "carSelection/cars/j01/v12/mobile",
				"for_mobile": 1,
				"is_protected": 0,
				"job_status": "preparing file for upload",
				"miniverse_url": ""
			},
			"name": "Scene",
			"nodes": [
				4,
				12
			]
		}
	],
	"nodes": [
		{
			"mesh": 0,
			"name": "Exterior_Details.001"
		},
		{
			"mesh": 1,
			"name": "Exterior_glass_front_lights.001"
		},
		{
			"children": [
				0,
				1
			],
			"extras": {
				"objectId": "car_j01_body",
				"objectType": "car"
			},
			"mesh": 2,
			"name": "Mainbody"
		},
		{
			"extras": {
				"objectId": "car_j01_wheel"
			},
			"mesh": 3,
			"name": "Wheels"
		},
		{
			"children": [
				2,
				3
			],
			"name": "drivable_J01"
		},
		{
			"mesh": 4,
			"name": "Exterior_Details.007"
		},
		{
			"mesh": 5,
			"name": "Exterior_glass_front_lights.004"
		},
		{
			"children": [
				5,
				6
			],
			"mesh": 6,
			"name": "Mainbody.001",
			"translation": [
				-1.9001985788345337,
				0.1752474457025528,
				0
			]
		},
		{
			"mesh": 7,
			"name": "Wheels.001",
			"translation": [
				-1.159218192100525,
				0.31490200757980347,
				-0.7233784198760986
			]
		},
		{
			"mesh": 8,
			"name": "Wheels.002",
			"translation": [
				1.3495296239852905,
				0.3225504159927368,
				-0.7233784198760986
			]
		},
		{
			"mesh": 9,
			"name": "Wheels.003",
			"rotation": [
				0,
				-1,
				0,
				1.6292068494294654e-7
			],
			"translation": [
				-1.159218192100525,
				0.31490200757980347,
				0.7233784198760986
			]
		},
		{
			"mesh": 10,
			"name": "Wheels.004",
			"rotation": [
				0,
				-1,
				0,
				1.6292068494294654e-7
			],
			"translation": [
				1.3495296239852905,
				0.3225504159927368,
				0.7233784198760986
			]
		},
		{
			"children": [
				7,
				8,
				9,
				10,
				11
			],
			"extras": {
				"objectId": "car_j01_drivable_root"
			},
			"name": "drivable_J01.001"
		}
	],
	"materials": [
		{
			"doubleSided": true,
			"extras": {
				"EmissionStrength_VALUE": 16
			},
			"name": "J01_Details",
			"pbrMetallicRoughness": {},
			"extensions": {
				"GDGT_materials_pbr": {
					"baseColorTexture": {
						"index": 5
					},
					"alphaFactor": 1,
					"ormTexture": {
						"index": 9
					},
					"emissiveTexture": {
						"index": 7
					},
					"normalTexture": {
						"index": 8
					},
					"bentNormalTexture": {
						"index": 6
					},
					"model": "dynamic"
				}
			}
		},
		{
			"doubleSided": true,
			"extras": {
				"materialType": "glass",
				"EmissionStrength_VALUE": 16
			},
			"name": "J01_Details_glass",
			"pbrMetallicRoughness": {},
			"extensions": {
				"GDGT_materials_pbr": {
					"baseColorFactor": [
						0.5,
						0.5,
						0.5,
						1
					],
					"alphaFactor": 1,
					"ormFactor": [
						1,
						0.5,
						0,
						1
					],
					"emissiveFactor": [
						0,
						0,
						0,
						1
					],
					"normalTexture": {
						"index": 8
					},
					"bentNormalTexture": {
						"index": 6
					},
					"model": "dynamic"
				}
			}
		},
		{
			"doubleSided": true,
			"extras": {
				"EmissionStrength_VALUE": 16
			},
			"name": "J01_body_drivable",
			"pbrMetallicRoughness": {},
			"extensions": {
				"GDGT_materials_pbr": {
					"baseColorTexture": {
						"index": 0
					},
					"alphaFactor": 1,
					"ormTexture": {
						"index": 4
					},
					"emissiveTexture": {
						"index": 2
					},
					"normalTexture": {
						"index": 3
					},
					"bentNormalTexture": {
						"index": 1
					},
					"model": "dynamic"
				}
			}
		}
	],
	"meshes": [
		{
			"name": "Flight_low.002",
			"primitives": [
				{
					"attributes": {
						"POSITION": 0,
						"NORMAL": 1,
						"TEXCOORD_0": 2,
						"TANGENT": 3
					},
					"indices": 4,
					"material": 0
				}
			]
		},
		{
			"name": "GFlight_low.002",
			"primitives": [
				{
					"attributes": {
						"POSITION": 5,
						"NORMAL": 6,
						"TEXCOORD_0": 7,
						"TANGENT": 8
					},
					"indices": 9,
					"material": 1
				}
			]
		},
		{
			"name": "Mainbody_low.002",
			"primitives": [
				{
					"attributes": {
						"POSITION": 10,
						"NORMAL": 11,
						"TEXCOORD_0": 12,
						"TANGENT": 13
					},
					"indices": 14,
					"material": 2
				}
			]
		},
		{
			"name": "Wheels_low.002",
			"primitives": [
				{
					"attributes": {
						"POSITION": 15,
						"NORMAL": 16,
						"TEXCOORD_0": 17,
						"TANGENT": 18
					},
					"indices": 19,
					"material": 0
				}
			]
		},
		{
			"name": "Flight_low.004",
			"primitives": [
				{
					"attributes": {
						"POSITION": 20,
						"NORMAL": 21,
						"TEXCOORD_0": 22,
						"TANGENT": 23
					},
					"indices": 4,
					"material": 0
				}
			]
		},
		{
			"name": "GFlight_low.005",
			"primitives": [
				{
					"attributes": {
						"POSITION": 24,
						"NORMAL": 25,
						"TEXCOORD_0": 26,
						"TANGENT": 27
					},
					"indices": 9,
					"material": 1
				}
			]
		},
		{
			"name": "Mainbody_low.004",
			"primitives": [
				{
					"attributes": {
						"POSITION": 28,
						"NORMAL": 29,
						"TEXCOORD_0": 30,
						"TANGENT": 31
					},
					"indices": 14,
					"material": 2
				}
			]
		},
		{
			"name": "Wheels_low.004",
			"primitives": [
				{
					"attributes": {
						"POSITION": 32,
						"NORMAL": 33,
						"TEXCOORD_0": 34,
						"TANGENT": 35
					},
					"indices": 19,
					"material": 0
				}
			]
		},
		{
			"name": "Wheels_low.006",
			"primitives": [
				{
					"attributes": {
						"POSITION": 36,
						"NORMAL": 37,
						"TEXCOORD_0": 38,
						"TANGENT": 39
					},
					"indices": 19,
					"material": 0
				}
			]
		},
		{
			"name": "Wheels_low.008",
			"primitives": [
				{
					"attributes": {
						"POSITION": 40,
						"NORMAL": 41,
						"TEXCOORD_0": 42,
						"TANGENT": 43
					},
					"indices": 19,
					"material": 0
				}
			]
		},
		{
			"name": "Wheels_low.010",
			"primitives": [
				{
					"attributes": {
						"POSITION": 44,
						"NORMAL": 45,
						"TEXCOORD_0": 46,
						"TANGENT": 47
					},
					"indices": 19,
					"material": 0
				}
			]
		}
	],
	"accessors": [
		{
			"bufferView": 0,
			"componentType": 5126,
			"count": 1541,
			"max": [
				3.671266555786133,
				0.9416333436965942,
				0.987506628036499
			],
			"min": [
				0.12805604934692383,
				0.4367094039916992,
				-0.9875065088272095
			],
			"type": "VEC3"
		},
		{
			"bufferView": 1,
			"componentType": 5126,
			"count": 1541,
			"type": "VEC3"
		},
		{
			"bufferView": 2,
			"componentType": 5126,
			"count": 1541,
			"type": "VEC2"
		},
		{
			"bufferView": 3,
			"componentType": 5126,
			"count": 1541,
			"type": "VEC4"
		},
		{
			"bufferView": 4,
			"componentType": 5123,
			"count": 5562,
			"type": "SCALAR"
		},
		{
			"bufferView": 5,
			"componentType": 5126,
			"count": 112,
			"max": [
				0.4019501805305481,
				0.7043737173080444,
				0.7852869033813477
			],
			"min": [
				0.12361383438110352,
				0.4543551802635193,
				-0.7852869033813477
			],
			"type": "VEC3"
		},
		{
			"bufferView": 6,
			"componentType": 5126,
			"count": 112,
			"type": "VEC3"
		},
		{
			"bufferView": 7,
			"componentType": 5126,
			"count": 112,
			"type": "VEC2"
		},
		{
			"bufferView": 8,
			"componentType": 5126,
			"count": 112,
			"type": "VEC4"
		},
		{
			"bufferView": 9,
			"componentType": 5123,
			"count": 546,
			"type": "SCALAR"
		},
		{
			"bufferView": 10,
			"componentType": 5126,
			"count": 2555,
			"max": [
				3.848402500152588,
				1.3059269189834595,
				0.8784849643707275
			],
			"min": [
				-0.00975877046585083,
				-0.021010473370552063,
				-0.8784849643707275
			],
			"type": "VEC3"
		},
		{
			"bufferView": 11,
			"componentType": 5126,
			"count": 2555,
			"type": "VEC3"
		},
		{
			"bufferView": 12,
			"componentType": 5126,
			"count": 2555,
			"type": "VEC2"
		},
		{
			"bufferView": 13,
			"componentType": 5126,
			"count": 2555,
			"type": "VEC4"
		},
		{
			"bufferView": 14,
			"componentType": 5123,
			"count": 12042,
			"type": "SCALAR"
		},
		{
			"bufferView": 15,
			"componentType": 5126,
			"count": 1681,
			"max": [
				0.3197954297065735,
				0.31859391927719116,
				0.11030984669923782
			],
			"min": [
				-0.3197954297065735,
				-0.31859391927719116,
				-0.11967319250106812
			],
			"type": "VEC3"
		},
		{
			"bufferView": 16,
			"componentType": 5126,
			"count": 1681,
			"type": "VEC3"
		},
		{
			"bufferView": 17,
			"componentType": 5126,
			"count": 1681,
			"type": "VEC2"
		},
		{
			"bufferView": 18,
			"componentType": 5126,
			"count": 1681,
			"type": "VEC4"
		},
		{
			"bufferView": 19,
			"componentType": 5123,
			"count": 8025,
			"type": "SCALAR"
		},
		{
			"bufferView": 20,
			"componentType": 5126,
			"count": 1541,
			"max": [
				3.671266555786133,
				0.9416333436965942,
				0.987506628036499
			],
			"min": [
				0.12805604934692383,
				0.4367094039916992,
				-0.9875065088272095
			],
			"type": "VEC3"
		},
		{
			"bufferView": 21,
			"componentType": 5126,
			"count": 1541,
			"type": "VEC3"
		},
		{
			"bufferView": 22,
			"componentType": 5126,
			"count": 1541,
			"type": "VEC2"
		},
		{
			"bufferView": 23,
			"componentType": 5126,
			"count": 1541,
			"type": "VEC4"
		},
		{
			"bufferView": 24,
			"componentType": 5126,
			"count": 112,
			"max": [
				0.4019501805305481,
				0.7043737173080444,
				0.7852869033813477
			],
			"min": [
				0.12361383438110352,
				0.4543551802635193,
				-0.7852869033813477
			],
			"type": "VEC3"
		},
		{
			"bufferView": 25,
			"componentType": 5126,
			"count": 112,
			"type": "VEC3"
		},
		{
			"bufferView": 26,
			"componentType": 5126,
			"count": 112,
			"type": "VEC2"
		},
		{
			"bufferView": 27,
			"componentType": 5126,
			"count": 112,
			"type": "VEC4"
		},
		{
			"bufferView": 28,
			"componentType": 5126,
			"count": 2555,
			"max": [
				3.848402500152588,
				1.3059269189834595,
				0.8784849643707275
			],
			"min": [
				-0.00975877046585083,
				-0.021010473370552063,
				-0.8784849643707275
			],
			"type": "VEC3"
		},
		{
			"bufferView": 29,
			"componentType": 5126,
			"count": 2555,
			"type": "VEC3"
		},
		{
			"bufferView": 30,
			"componentType": 5126,
			"count": 2555,
			"type": "VEC2"
		},
		{
			"bufferView": 31,
			"componentType": 5126,
			"count": 2555,
			"type": "VEC4"
		},
		{
			"bufferView": 32,
			"componentType": 5126,
			"count": 1681,
			"max": [
				0.3197954297065735,
				0.31859391927719116,
				0.11030984669923782
			],
			"min": [
				-0.3197954297065735,
				-0.31859391927719116,
				-0.11967319250106812
			],
			"type": "VEC3"
		},
		{
			"bufferView": 33,
			"componentType": 5126,
			"count": 1681,
			"type": "VEC3"
		},
		{
			"bufferView": 34,
			"componentType": 5126,
			"count": 1681,
			"type": "VEC2"
		},
		{
			"bufferView": 35,
			"componentType": 5126,
			"count": 1681,
			"type": "VEC4"
		},
		{
			"bufferView": 36,
			"componentType": 5126,
			"count": 1681,
			"max": [
				0.3197954297065735,
				0.31859391927719116,
				0.11030984669923782
			],
			"min": [
				-0.3197954297065735,
				-0.31859391927719116,
				-0.11967319250106812
			],
			"type": "VEC3"
		},
		{
			"bufferView": 37,
			"componentType": 5126,
			"count": 1681,
			"type": "VEC3"
		},
		{
			"bufferView": 38,
			"componentType": 5126,
			"count": 1681,
			"type": "VEC2"
		},
		{
			"bufferView": 39,
			"componentType": 5126,
			"count": 1681,
			"type": "VEC4"
		},
		{
			"bufferView": 40,
			"componentType": 5126,
			"count": 1681,
			"max": [
				0.3197954297065735,
				0.31859391927719116,
				0.11030984669923782
			],
			"min": [
				-0.3197954297065735,
				-0.31859391927719116,
				-0.11967319250106812
			],
			"type": "VEC3"
		},
		{
			"bufferView": 41,
			"componentType": 5126,
			"count": 1681,
			"type": "VEC3"
		},
		{
			"bufferView": 42,
			"componentType": 5126,
			"count": 1681,
			"type": "VEC2"
		},
		{
			"bufferView": 43,
			"componentType": 5126,
			"count": 1681,
			"type": "VEC4"
		},
		{
			"bufferView": 44,
			"componentType": 5126,
			"count": 1681,
			"max": [
				0.3197954297065735,
				0.31859391927719116,
				0.11030984669923782
			],
			"min": [
				-0.3197954297065735,
				-0.31859391927719116,
				-0.11967319250106812
			],
			"type": "VEC3"
		},
		{
			"bufferView": 45,
			"componentType": 5126,
			"count": 1681,
			"type": "VEC3"
		},
		{
			"bufferView": 46,
			"componentType": 5126,
			"count": 1681,
			"type": "VEC2"
		},
		{
			"bufferView": 47,
			"componentType": 5126,
			"count": 1681,
			"type": "VEC4"
		}
	],
	"bufferViews": [
		{
			"buffer": 0,
			"byteLength": 18492,
			"byteOffset": 0,
			"target": 34962
		},
		{
			"buffer": 0,
			"byteLength": 18492,
			"byteOffset": 18492,
			"target": 34962
		},
		{
			"buffer": 0,
			"byteLength": 12328,
			"byteOffset": 36984,
			"target": 34962
		},
		{
			"buffer": 0,
			"byteLength": 24656,
			"byteOffset": 49312,
			"target": 34962
		},
		{
			"buffer": 0,
			"byteLength": 11124,
			"byteOffset": 73968,
			"target": 34963
		},
		{
			"buffer": 0,
			"byteLength": 1344,
			"byteOffset": 85092,
			"target": 34962
		},
		{
			"buffer": 0,
			"byteLength": 1344,
			"byteOffset": 86436,
			"target": 34962
		},
		{
			"buffer": 0,
			"byteLength": 896,
			"byteOffset": 87780,
			"target": 34962
		},
		{
			"buffer": 0,
			"byteLength": 1792,
			"byteOffset": 88676,
			"target": 34962
		},
		{
			"buffer": 0,
			"byteLength": 1092,
			"byteOffset": 90468,
			"target": 34963
		},
		{
			"buffer": 0,
			"byteLength": 30660,
			"byteOffset": 91560,
			"target": 34962
		},
		{
			"buffer": 0,
			"byteLength": 30660,
			"byteOffset": 122220,
			"target": 34962
		},
		{
			"buffer": 0,
			"byteLength": 20440,
			"byteOffset": 152880,
			"target": 34962
		},
		{
			"buffer": 0,
			"byteLength": 40880,
			"byteOffset": 173320,
			"target": 34962
		},
		{
			"buffer": 0,
			"byteLength": 24084,
			"byteOffset": 214200,
			"target": 34963
		},
		{
			"buffer": 0,
			"byteLength": 20172,
			"byteOffset": 238284,
			"target": 34962
		},
		{
			"buffer": 0,
			"byteLength": 20172,
			"byteOffset": 258456,
			"target": 34962
		},
		{
			"buffer": 0,
			"byteLength": 13448,
			"byteOffset": 278628,
			"target": 34962
		},
		{
			"buffer": 0,
			"byteLength": 26896,
			"byteOffset": 292076,
			"target": 34962
		},
		{
			"buffer": 0,
			"byteLength": 16050,
			"byteOffset": 318972,
			"target": 34963
		},
		{
			"buffer": 0,
			"byteLength": 18492,
			"byteOffset": 335024,
			"target": 34962
		},
		{
			"buffer": 0,
			"byteLength": 18492,
			"byteOffset": 353516,
			"target": 34962
		},
		{
			"buffer": 0,
			"byteLength": 12328,
			"byteOffset": 372008,
			"target": 34962
		},
		{
			"buffer": 0,
			"byteLength": 24656,
			"byteOffset": 384336,
			"target": 34962
		},
		{
			"buffer": 0,
			"byteLength": 1344,
			"byteOffset": 408992,
			"target": 34962
		},
		{
			"buffer": 0,
			"byteLength": 1344,
			"byteOffset": 410336,
			"target": 34962
		},
		{
			"buffer": 0,
			"byteLength": 896,
			"byteOffset": 411680,
			"target": 34962
		},
		{
			"buffer": 0,
			"byteLength": 1792,
			"byteOffset": 412576,
			"target": 34962
		},
		{
			"buffer": 0,
			"byteLength": 30660,
			"byteOffset": 414368,
			"target": 34962
		},
		{
			"buffer": 0,
			"byteLength": 30660,
			"byteOffset": 445028,
			"target": 34962
		},
		{
			"buffer": 0,
			"byteLength": 20440,
			"byteOffset": 475688,
			"target": 34962
		},
		{
			"buffer": 0,
			"byteLength": 40880,
			"byteOffset": 496128,
			"target": 34962
		},
		{
			"buffer": 0,
			"byteLength": 20172,
			"byteOffset": 537008,
			"target": 34962
		},
		{
			"buffer": 0,
			"byteLength": 20172,
			"byteOffset": 557180,
			"target": 34962
		},
		{
			"buffer": 0,
			"byteLength": 13448,
			"byteOffset": 577352,
			"target": 34962
		},
		{
			"buffer": 0,
			"byteLength": 26896,
			"byteOffset": 590800,
			"target": 34962
		},
		{
			"buffer": 0,
			"byteLength": 20172,
			"byteOffset": 617696,
			"target": 34962
		},
		{
			"buffer": 0,
			"byteLength": 20172,
			"byteOffset": 637868,
			"target": 34962
		},
		{
			"buffer": 0,
			"byteLength": 13448,
			"byteOffset": 658040,
			"target": 34962
		},
		{
			"buffer": 0,
			"byteLength": 26896,
			"byteOffset": 671488,
			"target": 34962
		},
		{
			"buffer": 0,
			"byteLength": 20172,
			"byteOffset": 698384,
			"target": 34962
		},
		{
			"buffer": 0,
			"byteLength": 20172,
			"byteOffset": 718556,
			"target": 34962
		},
		{
			"buffer": 0,
			"byteLength": 13448,
			"byteOffset": 738728,
			"target": 34962
		},
		{
			"buffer": 0,
			"byteLength": 26896,
			"byteOffset": 752176,
			"target": 34962
		},
		{
			"buffer": 0,
			"byteLength": 20172,
			"byteOffset": 779072,
			"target": 34962
		},
		{
			"buffer": 0,
			"byteLength": 20172,
			"byteOffset": 799244,
			"target": 34962
		},
		{
			"buffer": 0,
			"byteLength": 13448,
			"byteOffset": 819416,
			"target": 34962
		},
		{
			"buffer": 0,
			"byteLength": 26896,
			"byteOffset": 832864,
			"target": 34962
		}
	],
	"buffers": [
		{
			"byteLength": 859760,
			"uri": "J01_static-dynamic%20_V00.bin"
		}
	],
	"extensionsRequired": [
		"GDGT_materials_pbr",
		"KHR_texture_basisu",
		"KHR_lights_punctual",
		"GDGT_lights_image_based"
	],
	"extensionsUsed": [
		"GDGT_materials_pbr",
		"KHR_texture_basisu",
		"KHR_lights_punctual",
		"GDGT_lights_image_based"
	],
	"extensions": {
		"GDGT_lights_image_based": {
			"irradianceProbes": [],
			"specularProbes": []
		}
	},
	"images": [
		{
			"uri": "1da7e997.ktx2"
		},
		{
			"uri": "b9e70e75.ktx2"
		},
		{
			"uri": "df6bb873.ktx2"
		},
		{
			"uri": "0c13db40.ktx2"
		},
		{
			"uri": "577b12b1.ktx2"
		},
		{
			"uri": "5003467c.ktx2"
		},
		{
			"uri": "92e6af4a.ktx2"
		},
		{
			"uri": "0949495b.ktx2"
		},
		{
			"uri": "224b9ba6.ktx2"
		},
		{
			"uri": "5e8cc548.ktx2"
		}
	],
	"textures": [
		{
			"extensions": {
				"KHR_texture_basisu": {
					"source": 0
				}
			}
		},
		{
			"extensions": {
				"KHR_texture_basisu": {
					"source": 1
				}
			}
		},
		{
			"extensions": {
				"KHR_texture_basisu": {
					"source": 2
				}
			}
		},
		{
			"extensions": {
				"KHR_texture_basisu": {
					"source": 3
				}
			}
		},
		{
			"extensions": {
				"KHR_texture_basisu": {
					"source": 4
				}
			}
		},
		{
			"extensions": {
				"KHR_texture_basisu": {
					"source": 5
				}
			}
		},
		{
			"extensions": {
				"KHR_texture_basisu": {
					"source": 6
				}
			}
		},
		{
			"extensions": {
				"KHR_texture_basisu": {
					"source": 7
				}
			}
		},
		{
			"extensions": {
				"KHR_texture_basisu": {
					"source": 8
				}
			}
		},
		{
			"extensions": {
				"KHR_texture_basisu": {
					"source": 9
				}
			}
		}
	]
}
