{
	"asset": {
		"generator": "Khronos glTF Blender I/O v3.6.27",
		"version": "2.0"
	},
	"scene": 0,
	"scenes": [
		{
			"extras": {
				"air_props": {},
				"SimpleBake_Props": {},
				"export_folder_path": "carSelection/cars/u25/v12/mobile",
				"for_mobile": 1,
				"is_protected": 0,
				"job_status": "preparing file for upload",
				"miniverse_url": ""
			},
			"name": "Scene",
			"nodes": [
				5,
				14
			]
		}
	],
	"nodes": [
		{
			"mesh": 0,
			"name": "Details_D.001"
		},
		{
			"mesh": 1,
			"name": "glass"
		},
		{
			"mesh": 2,
			"name": "Glass_front-light.D.001"
		},
		{
			"children": [
				0,
				1,
				2
			],
			"extras": {
				"objectId": "car_u25_body",
				"objectType": "car"
			},
			"mesh": 3,
			"name": "Body.D.001"
		},
		{
			"extras": {
				"objectId": "car_u25_wheel"
			},
			"mesh": 4,
			"name": "Wheel.D.001"
		},
		{
			"children": [
				3,
				4
			],
			"name": "drivable_U25"
		},
		{
			"mesh": 5,
			"name": "Details_D.004"
		},
		{
			"mesh": 6,
			"name": "glass.001"
		},
		{
			"mesh": 7,
			"name": "Glass_front-light.D.002"
		},
		{
			"children": [
				6,
				7,
				8
			],
			"mesh": 8,
			"name": "Body.D.002",
			"translation": [
				-2.2323813438415527,
				0.2680393159389496,
				0
			]
		},
		{
			"mesh": 9,
			"name": "Wheel.D.002",
			"translation": [
				-1.375572919845581,
				0.35054680705070496,
				-0.7707955241203308
			]
		},
		{
			"mesh": 10,
			"name": "Wheel.D.003",
			"translation": [
				1.3281335830688477,
				0.35054680705070496,
				-0.7707955241203308
			]
		},
		{
			"mesh": 11,
			"name": "Wheel.D.004",
			"rotation": [
				0,
				-1,
				0,
				1.6292068494294654e-7
			],
			"translation": [
				-1.375572919845581,
				0.35054680705070496,
				0.7866265773773193
			]
		},
		{
			"mesh": 12,
			"name": "Wheel.D.005",
			"rotation": [
				0,
				-1,
				0,
				1.6292068494294654e-7
			],
			"translation": [
				1.3281335830688477,
				0.35054680705070496,
				0.7866265773773193
			]
		},
		{
			"children": [
				9,
				10,
				11,
				12,
				13
			],
			"extras": {
				"objectId": "car_u25_drivable_root"
			},
			"name": "drivable_U25_full"
		}
	],
	"materials": [
		{
			"doubleSided": true,
			"extras": {
				"EmissionStrength_VALUE": 16
			},
			"name": "details_drivable",
			"pbrMetallicRoughness": {},
			"extensions": {
				"GDGT_materials_pbr": {
					"baseColorTexture": {
						"index": 5
					},
					"alphaFactor": 1,
					"ormTexture": {
						"index": 9
					},
					"emissiveTexture": {
						"index": 7
					},
					"normalTexture": {
						"index": 8
					},
					"bentNormalTexture": {
						"index": 6
					},
					"model": "dynamic"
				}
			}
		},
		{
			"doubleSided": true,
			"extras": {
				"EmissionStrength_VALUE": 16
			},
			"name": "Body_drivable_glass",
			"pbrMetallicRoughness": {},
			"extensions": {
				"GDGT_materials_pbr": {
					"baseColorTexture": {
						"index": 0
					},
					"alphaFactor": 1,
					"ormTexture": {
						"index": 4
					},
					"emissiveTexture": {
						"index": 2
					},
					"normalFactor": [
						0.5,
						0.5,
						1,
						1
					],
					"bentNormalFactor": [
						0.5,
						0.5,
						1,
						1
					],
					"model": "dynamic"
				}
			}
		},
		{
			"doubleSided": true,
			"extras": {
				"materialType": "glass",
				"EmissionStrength_VALUE": 16
			},
			"name": "front_glass_dribable",
			"pbrMetallicRoughness": {},
			"extensions": {
				"GDGT_materials_pbr": {
					"baseColorFactor": [
						0.5,
						0.5,
						0.5,
						1
					],
					"alphaFactor": 1,
					"ormFactor": [
						1,
						0.5,
						0,
						1
					],
					"emissiveFactor": [
						0,
						0,
						0,
						1
					],
					"normalTexture": {
						"index": 8
					},
					"bentNormalTexture": {
						"index": 6
					},
					"model": "dynamic"
				}
			}
		},
		{
			"doubleSided": true,
			"extras": {
				"EmissionStrength_VALUE": 16
			},
			"name": "Body_drivable",
			"pbrMetallicRoughness": {},
			"extensions": {
				"GDGT_materials_pbr": {
					"baseColorTexture": {
						"index": 0
					},
					"alphaFactor": 1,
					"ormTexture": {
						"index": 4
					},
					"emissiveTexture": {
						"index": 2
					},
					"normalTexture": {
						"index": 3
					},
					"bentNormalTexture": {
						"index": 1
					},
					"model": "dynamic"
				}
			}
		}
	],
	"meshes": [
		{
			"name": "SnowF_low.003",
			"primitives": [
				{
					"attributes": {
						"POSITION": 0,
						"NORMAL": 1,
						"TEXCOORD_0": 2,
						"TANGENT": 3
					},
					"indices": 4,
					"material": 0
				}
			]
		},
		{
			"name": "mainbody_low.006",
			"primitives": [
				{
					"attributes": {
						"POSITION": 5,
						"NORMAL": 6,
						"TEXCOORD_0": 7,
						"TANGENT": 8
					},
					"indices": 9,
					"material": 1
				}
			]
		},
		{
			"name": "Light_low.003",
			"primitives": [
				{
					"attributes": {
						"POSITION": 10,
						"NORMAL": 11,
						"TEXCOORD_0": 12,
						"TANGENT": 13
					},
					"indices": 14,
					"material": 2
				}
			]
		},
		{
			"name": "mainbody_low.004",
			"primitives": [
				{
					"attributes": {
						"POSITION": 15,
						"NORMAL": 16,
						"TEXCOORD_0": 17,
						"TANGENT": 18
					},
					"indices": 19,
					"material": 3
				},
				{
					"attributes": {
						"POSITION": 20,
						"NORMAL": 21,
						"TEXCOORD_0": 22,
						"TANGENT": 23
					},
					"indices": 24,
					"material": 3
				}
			]
		},
		{
			"name": "wheel_low.003",
			"primitives": [
				{
					"attributes": {
						"POSITION": 25,
						"NORMAL": 26,
						"TEXCOORD_0": 27,
						"TANGENT": 28
					},
					"indices": 29,
					"material": 0
				}
			]
		},
		{
			"name": "SnowF_low.005",
			"primitives": [
				{
					"attributes": {
						"POSITION": 30,
						"NORMAL": 31,
						"TEXCOORD_0": 32,
						"TANGENT": 33
					},
					"indices": 4,
					"material": 0
				}
			]
		},
		{
			"name": "mainbody_low.010",
			"primitives": [
				{
					"attributes": {
						"POSITION": 34,
						"NORMAL": 35,
						"TEXCOORD_0": 36,
						"TANGENT": 37
					},
					"indices": 9,
					"material": 1
				}
			]
		},
		{
			"name": "Light_low.006",
			"primitives": [
				{
					"attributes": {
						"POSITION": 38,
						"NORMAL": 39,
						"TEXCOORD_0": 40,
						"TANGENT": 41
					},
					"indices": 14,
					"material": 2
				}
			]
		},
		{
			"name": "mainbody_low.008",
			"primitives": [
				{
					"attributes": {
						"POSITION": 42,
						"NORMAL": 43,
						"TEXCOORD_0": 44,
						"TANGENT": 45
					},
					"indices": 19,
					"material": 3
				},
				{
					"attributes": {
						"POSITION": 46,
						"NORMAL": 47,
						"TEXCOORD_0": 48,
						"TANGENT": 49
					},
					"indices": 24,
					"material": 3
				}
			]
		},
		{
			"name": "wheel_low.005",
			"primitives": [
				{
					"attributes": {
						"POSITION": 50,
						"NORMAL": 51,
						"TEXCOORD_0": 52,
						"TANGENT": 53
					},
					"indices": 29,
					"material": 0
				}
			]
		},
		{
			"name": "wheel_low.007",
			"primitives": [
				{
					"attributes": {
						"POSITION": 54,
						"NORMAL": 55,
						"TEXCOORD_0": 56,
						"TANGENT": 57
					},
					"indices": 29,
					"material": 0
				}
			]
		},
		{
			"name": "wheel_low.009",
			"primitives": [
				{
					"attributes": {
						"POSITION": 58,
						"NORMAL": 59,
						"TEXCOORD_0": 60,
						"TANGENT": 61
					},
					"indices": 29,
					"material": 0
				}
			]
		},
		{
			"name": "wheel_low.011",
			"primitives": [
				{
					"attributes": {
						"POSITION": 62,
						"NORMAL": 63,
						"TEXCOORD_0": 64,
						"TANGENT": 65
					},
					"indices": 29,
					"material": 0
				}
			]
		}
	],
	"accessors": [
		{
			"bufferView": 0,
			"componentType": 5126,
			"count": 1767,
			"max": [
				4.309676170349121,
				1.4090485572814941,
				1.0403783321380615
			],
			"min": [
				-0.0020606517791748047,
				0.395030677318573,
				-1.0403783321380615
			],
			"type": "VEC3"
		},
		{
			"bufferView": 1,
			"componentType": 5126,
			"count": 1767,
			"type": "VEC3"
		},
		{
			"bufferView": 2,
			"componentType": 5126,
			"count": 1767,
			"type": "VEC2"
		},
		{
			"bufferView": 3,
			"componentType": 5126,
			"count": 1767,
			"type": "VEC4"
		},
		{
			"bufferView": 4,
			"componentType": 5123,
			"count": 6963,
			"type": "SCALAR"
		},
		{
			"bufferView": 5,
			"componentType": 5126,
			"count": 58,
			"max": [
				3.227738380432129,
				1.248037576675415,
				0.7825672030448914
			],
			"min": [
				1.664710283279419,
				0.867664098739624,
				-0.7825673222541809
			],
			"type": "VEC3"
		},
		{
			"bufferView": 6,
			"componentType": 5126,
			"count": 58,
			"type": "VEC3"
		},
		{
			"bufferView": 7,
			"componentType": 5126,
			"count": 58,
			"type": "VEC2"
		},
		{
			"bufferView": 8,
			"componentType": 5126,
			"count": 58,
			"type": "VEC4"
		},
		{
			"bufferView": 9,
			"componentType": 5123,
			"count": 186,
			"type": "SCALAR"
		},
		{
			"bufferView": 10,
			"componentType": 5126,
			"count": 100,
			"max": [
				0.4815397262573242,
				0.748267412185669,
				0.8170790076255798
			],
			"min": [
				0.12427616119384766,
				0.5336258411407471,
				-0.8170791268348694
			],
			"type": "VEC3"
		},
		{
			"bufferView": 11,
			"componentType": 5126,
			"count": 100,
			"type": "VEC3"
		},
		{
			"bufferView": 12,
			"componentType": 5126,
			"count": 100,
			"type": "VEC2"
		},
		{
			"bufferView": 13,
			"componentType": 5126,
			"count": 100,
			"type": "VEC4"
		},
		{
			"bufferView": 14,
			"componentType": 5123,
			"count": 474,
			"type": "SCALAR"
		},
		{
			"bufferView": 15,
			"componentType": 5126,
			"count": 3014,
			"max": [
				4.435915470123291,
				1.3976866006851196,
				0.9209972023963928
			],
			"min": [
				-0.0020515918731689453,
				-0.0052793920040130615,
				-0.9209973216056824
			],
			"type": "VEC3"
		},
		{
			"bufferView": 16,
			"componentType": 5126,
			"count": 3014,
			"type": "VEC3"
		},
		{
			"bufferView": 17,
			"componentType": 5126,
			"count": 3014,
			"type": "VEC2"
		},
		{
			"bufferView": 18,
			"componentType": 5126,
			"count": 3014,
			"type": "VEC4"
		},
		{
			"bufferView": 19,
			"componentType": 5123,
			"count": 12873,
			"type": "SCALAR"
		},
		{
			"bufferView": 20,
			"componentType": 5126,
			"count": 1830,
			"max": [
				4.418625354766846,
				1.3789918422698975,
				0.9209972023963928
			],
			"min": [
				0.0012981891632080078,
				-0.008857965469360352,
				-0.9209973216056824
			],
			"type": "VEC3"
		},
		{
			"bufferView": 21,
			"componentType": 5126,
			"count": 1830,
			"type": "VEC3"
		},
		{
			"bufferView": 22,
			"componentType": 5126,
			"count": 1830,
			"type": "VEC2"
		},
		{
			"bufferView": 23,
			"componentType": 5126,
			"count": 1830,
			"type": "VEC4"
		},
		{
			"bufferView": 24,
			"componentType": 5123,
			"count": 6543,
			"type": "SCALAR"
		},
		{
			"bufferView": 25,
			"componentType": 5126,
			"count": 657,
			"max": [
				0.3679814636707306,
				0.36660730838775635,
				0.12238699197769165
			],
			"min": [
				-0.36800074577331543,
				-0.3666098713874817,
				-0.12645334005355835
			],
			"type": "VEC3"
		},
		{
			"bufferView": 26,
			"componentType": 5126,
			"count": 657,
			"type": "VEC3"
		},
		{
			"bufferView": 27,
			"componentType": 5126,
			"count": 657,
			"type": "VEC2"
		},
		{
			"bufferView": 28,
			"componentType": 5126,
			"count": 657,
			"type": "VEC4"
		},
		{
			"bufferView": 29,
			"componentType": 5123,
			"count": 2574,
			"type": "SCALAR"
		},
		{
			"bufferView": 30,
			"componentType": 5126,
			"count": 1767,
			"max": [
				4.309676170349121,
				1.4090485572814941,
				1.0403783321380615
			],
			"min": [
				-0.0020606517791748047,
				0.395030677318573,
				-1.0403783321380615
			],
			"type": "VEC3"
		},
		{
			"bufferView": 31,
			"componentType": 5126,
			"count": 1767,
			"type": "VEC3"
		},
		{
			"bufferView": 32,
			"componentType": 5126,
			"count": 1767,
			"type": "VEC2"
		},
		{
			"bufferView": 33,
			"componentType": 5126,
			"count": 1767,
			"type": "VEC4"
		},
		{
			"bufferView": 34,
			"componentType": 5126,
			"count": 58,
			"max": [
				3.227738380432129,
				1.248037576675415,
				0.7825672030448914
			],
			"min": [
				1.664710283279419,
				0.867664098739624,
				-0.7825673222541809
			],
			"type": "VEC3"
		},
		{
			"bufferView": 35,
			"componentType": 5126,
			"count": 58,
			"type": "VEC3"
		},
		{
			"bufferView": 36,
			"componentType": 5126,
			"count": 58,
			"type": "VEC2"
		},
		{
			"bufferView": 37,
			"componentType": 5126,
			"count": 58,
			"type": "VEC4"
		},
		{
			"bufferView": 38,
			"componentType": 5126,
			"count": 100,
			"max": [
				0.4815397262573242,
				0.748267412185669,
				0.8170790076255798
			],
			"min": [
				0.12427616119384766,
				0.5336258411407471,
				-0.8170791268348694
			],
			"type": "VEC3"
		},
		{
			"bufferView": 39,
			"componentType": 5126,
			"count": 100,
			"type": "VEC3"
		},
		{
			"bufferView": 40,
			"componentType": 5126,
			"count": 100,
			"type": "VEC2"
		},
		{
			"bufferView": 41,
			"componentType": 5126,
			"count": 100,
			"type": "VEC4"
		},
		{
			"bufferView": 42,
			"componentType": 5126,
			"count": 3014,
			"max": [
				4.435915470123291,
				1.3976866006851196,
				0.9209972023963928
			],
			"min": [
				-0.0020515918731689453,
				-0.0052793920040130615,
				-0.9209973216056824
			],
			"type": "VEC3"
		},
		{
			"bufferView": 43,
			"componentType": 5126,
			"count": 3014,
			"type": "VEC3"
		},
		{
			"bufferView": 44,
			"componentType": 5126,
			"count": 3014,
			"type": "VEC2"
		},
		{
			"bufferView": 45,
			"componentType": 5126,
			"count": 3014,
			"type": "VEC4"
		},
		{
			"bufferView": 46,
			"componentType": 5126,
			"count": 1830,
			"max": [
				4.418625354766846,
				1.3789918422698975,
				0.9209972023963928
			],
			"min": [
				0.0012981891632080078,
				-0.008857965469360352,
				-0.9209973216056824
			],
			"type": "VEC3"
		},
		{
			"bufferView": 47,
			"componentType": 5126,
			"count": 1830,
			"type": "VEC3"
		},
		{
			"bufferView": 48,
			"componentType": 5126,
			"count": 1830,
			"type": "VEC2"
		},
		{
			"bufferView": 49,
			"componentType": 5126,
			"count": 1830,
			"type": "VEC4"
		},
		{
			"bufferView": 50,
			"componentType": 5126,
			"count": 657,
			"max": [
				0.3679814636707306,
				0.36660730838775635,
				0.12238699197769165
			],
			"min": [
				-0.36800074577331543,
				-0.3666098713874817,
				-0.12645334005355835
			],
			"type": "VEC3"
		},
		{
			"bufferView": 51,
			"componentType": 5126,
			"count": 657,
			"type": "VEC3"
		},
		{
			"bufferView": 52,
			"componentType": 5126,
			"count": 657,
			"type": "VEC2"
		},
		{
			"bufferView": 53,
			"componentType": 5126,
			"count": 657,
			"type": "VEC4"
		},
		{
			"bufferView": 54,
			"componentType": 5126,
			"count": 657,
			"max": [
				0.3679814636707306,
				0.36660730838775635,
				0.12238699197769165
			],
			"min": [
				-0.36800074577331543,
				-0.3666098713874817,
				-0.12645334005355835
			],
			"type": "VEC3"
		},
		{
			"bufferView": 55,
			"componentType": 5126,
			"count": 657,
			"type": "VEC3"
		},
		{
			"bufferView": 56,
			"componentType": 5126,
			"count": 657,
			"type": "VEC2"
		},
		{
			"bufferView": 57,
			"componentType": 5126,
			"count": 657,
			"type": "VEC4"
		},
		{
			"bufferView": 58,
			"componentType": 5126,
			"count": 657,
			"max": [
				0.3679814636707306,
				0.36660730838775635,
				0.12238699197769165
			],
			"min": [
				-0.36800074577331543,
				-0.3666098713874817,
				-0.12645334005355835
			],
			"type": "VEC3"
		},
		{
			"bufferView": 59,
			"componentType": 5126,
			"count": 657,
			"type": "VEC3"
		},
		{
			"bufferView": 60,
			"componentType": 5126,
			"count": 657,
			"type": "VEC2"
		},
		{
			"bufferView": 61,
			"componentType": 5126,
			"count": 657,
			"type": "VEC4"
		},
		{
			"bufferView": 62,
			"componentType": 5126,
			"count": 657,
			"max": [
				0.3679814636707306,
				0.36660730838775635,
				0.12238699197769165
			],
			"min": [
				-0.36800074577331543,
				-0.3666098713874817,
				-0.12645334005355835
			],
			"type": "VEC3"
		},
		{
			"bufferView": 63,
			"componentType": 5126,
			"count": 657,
			"type": "VEC3"
		},
		{
			"bufferView": 64,
			"componentType": 5126,
			"count": 657,
			"type": "VEC2"
		},
		{
			"bufferView": 65,
			"componentType": 5126,
			"count": 657,
			"type": "VEC4"
		}
	],
	"bufferViews": [
		{
			"buffer": 0,
			"byteLength": 21204,
			"byteOffset": 0,
			"target": 34962
		},
		{
			"buffer": 0,
			"byteLength": 21204,
			"byteOffset": 21204,
			"target": 34962
		},
		{
			"buffer": 0,
			"byteLength": 14136,
			"byteOffset": 42408,
			"target": 34962
		},
		{
			"buffer": 0,
			"byteLength": 28272,
			"byteOffset": 56544,
			"target": 34962
		},
		{
			"buffer": 0,
			"byteLength": 13926,
			"byteOffset": 84816,
			"target": 34963
		},
		{
			"buffer": 0,
			"byteLength": 696,
			"byteOffset": 98744,
			"target": 34962
		},
		{
			"buffer": 0,
			"byteLength": 696,
			"byteOffset": 99440,
			"target": 34962
		},
		{
			"buffer": 0,
			"byteLength": 464,
			"byteOffset": 100136,
			"target": 34962
		},
		{
			"buffer": 0,
			"byteLength": 928,
			"byteOffset": 100600,
			"target": 34962
		},
		{
			"buffer": 0,
			"byteLength": 372,
			"byteOffset": 101528,
			"target": 34963
		},
		{
			"buffer": 0,
			"byteLength": 1200,
			"byteOffset": 101900,
			"target": 34962
		},
		{
			"buffer": 0,
			"byteLength": 1200,
			"byteOffset": 103100,
			"target": 34962
		},
		{
			"buffer": 0,
			"byteLength": 800,
			"byteOffset": 104300,
			"target": 34962
		},
		{
			"buffer": 0,
			"byteLength": 1600,
			"byteOffset": 105100,
			"target": 34962
		},
		{
			"buffer": 0,
			"byteLength": 948,
			"byteOffset": 106700,
			"target": 34963
		},
		{
			"buffer": 0,
			"byteLength": 36168,
			"byteOffset": 107648,
			"target": 34962
		},
		{
			"buffer": 0,
			"byteLength": 36168,
			"byteOffset": 143816,
			"target": 34962
		},
		{
			"buffer": 0,
			"byteLength": 24112,
			"byteOffset": 179984,
			"target": 34962
		},
		{
			"buffer": 0,
			"byteLength": 48224,
			"byteOffset": 204096,
			"target": 34962
		},
		{
			"buffer": 0,
			"byteLength": 25746,
			"byteOffset": 252320,
			"target": 34963
		},
		{
			"buffer": 0,
			"byteLength": 21960,
			"byteOffset": 278068,
			"target": 34962
		},
		{
			"buffer": 0,
			"byteLength": 21960,
			"byteOffset": 300028,
			"target": 34962
		},
		{
			"buffer": 0,
			"byteLength": 14640,
			"byteOffset": 321988,
			"target": 34962
		},
		{
			"buffer": 0,
			"byteLength": 29280,
			"byteOffset": 336628,
			"target": 34962
		},
		{
			"buffer": 0,
			"byteLength": 13086,
			"byteOffset": 365908,
			"target": 34963
		},
		{
			"buffer": 0,
			"byteLength": 7884,
			"byteOffset": 378996,
			"target": 34962
		},
		{
			"buffer": 0,
			"byteLength": 7884,
			"byteOffset": 386880,
			"target": 34962
		},
		{
			"buffer": 0,
			"byteLength": 5256,
			"byteOffset": 394764,
			"target": 34962
		},
		{
			"buffer": 0,
			"byteLength": 10512,
			"byteOffset": 400020,
			"target": 34962
		},
		{
			"buffer": 0,
			"byteLength": 5148,
			"byteOffset": 410532,
			"target": 34963
		},
		{
			"buffer": 0,
			"byteLength": 21204,
			"byteOffset": 415680,
			"target": 34962
		},
		{
			"buffer": 0,
			"byteLength": 21204,
			"byteOffset": 436884,
			"target": 34962
		},
		{
			"buffer": 0,
			"byteLength": 14136,
			"byteOffset": 458088,
			"target": 34962
		},
		{
			"buffer": 0,
			"byteLength": 28272,
			"byteOffset": 472224,
			"target": 34962
		},
		{
			"buffer": 0,
			"byteLength": 696,
			"byteOffset": 500496,
			"target": 34962
		},
		{
			"buffer": 0,
			"byteLength": 696,
			"byteOffset": 501192,
			"target": 34962
		},
		{
			"buffer": 0,
			"byteLength": 464,
			"byteOffset": 501888,
			"target": 34962
		},
		{
			"buffer": 0,
			"byteLength": 928,
			"byteOffset": 502352,
			"target": 34962
		},
		{
			"buffer": 0,
			"byteLength": 1200,
			"byteOffset": 503280,
			"target": 34962
		},
		{
			"buffer": 0,
			"byteLength": 1200,
			"byteOffset": 504480,
			"target": 34962
		},
		{
			"buffer": 0,
			"byteLength": 800,
			"byteOffset": 505680,
			"target": 34962
		},
		{
			"buffer": 0,
			"byteLength": 1600,
			"byteOffset": 506480,
			"target": 34962
		},
		{
			"buffer": 0,
			"byteLength": 36168,
			"byteOffset": 508080,
			"target": 34962
		},
		{
			"buffer": 0,
			"byteLength": 36168,
			"byteOffset": 544248,
			"target": 34962
		},
		{
			"buffer": 0,
			"byteLength": 24112,
			"byteOffset": 580416,
			"target": 34962
		},
		{
			"buffer": 0,
			"byteLength": 48224,
			"byteOffset": 604528,
			"target": 34962
		},
		{
			"buffer": 0,
			"byteLength": 21960,
			"byteOffset": 652752,
			"target": 34962
		},
		{
			"buffer": 0,
			"byteLength": 21960,
			"byteOffset": 674712,
			"target": 34962
		},
		{
			"buffer": 0,
			"byteLength": 14640,
			"byteOffset": 696672,
			"target": 34962
		},
		{
			"buffer": 0,
			"byteLength": 29280,
			"byteOffset": 711312,
			"target": 34962
		},
		{
			"buffer": 0,
			"byteLength": 7884,
			"byteOffset": 740592,
			"target": 34962
		},
		{
			"buffer": 0,
			"byteLength": 7884,
			"byteOffset": 748476,
			"target": 34962
		},
		{
			"buffer": 0,
			"byteLength": 5256,
			"byteOffset": 756360,
			"target": 34962
		},
		{
			"buffer": 0,
			"byteLength": 10512,
			"byteOffset": 761616,
			"target": 34962
		},
		{
			"buffer": 0,
			"byteLength": 7884,
			"byteOffset": 772128,
			"target": 34962
		},
		{
			"buffer": 0,
			"byteLength": 7884,
			"byteOffset": 780012,
			"target": 34962
		},
		{
			"buffer": 0,
			"byteLength": 5256,
			"byteOffset": 787896,
			"target": 34962
		},
		{
			"buffer": 0,
			"byteLength": 10512,
			"byteOffset": 793152,
			"target": 34962
		},
		{
			"buffer": 0,
			"byteLength": 7884,
			"byteOffset": 803664,
			"target": 34962
		},
		{
			"buffer": 0,
			"byteLength": 7884,
			"byteOffset": 811548,
			"target": 34962
		},
		{
			"buffer": 0,
			"byteLength": 5256,
			"byteOffset": 819432,
			"target": 34962
		},
		{
			"buffer": 0,
			"byteLength": 10512,
			"byteOffset": 824688,
			"target": 34962
		},
		{
			"buffer": 0,
			"byteLength": 7884,
			"byteOffset": 835200,
			"target": 34962
		},
		{
			"buffer": 0,
			"byteLength": 7884,
			"byteOffset": 843084,
			"target": 34962
		},
		{
			"buffer": 0,
			"byteLength": 5256,
			"byteOffset": 850968,
			"target": 34962
		},
		{
			"buffer": 0,
			"byteLength": 10512,
			"byteOffset": 856224,
			"target": 34962
		}
	],
	"buffers": [
		{
			"byteLength": 866736,
			"uri": "U25-BEV_static-dynamic%20_V00.bin"
		}
	],
	"extensionsRequired": [
		"GDGT_materials_pbr",
		"KHR_texture_basisu",
		"KHR_lights_punctual",
		"GDGT_lights_image_based"
	],
	"extensionsUsed": [
		"GDGT_materials_pbr",
		"KHR_texture_basisu",
		"KHR_lights_punctual",
		"GDGT_lights_image_based"
	],
	"extensions": {
		"GDGT_lights_image_based": {
			"irradianceProbes": [],
			"specularProbes": []
		}
	},
	"images": [
		{
			"uri": "89f08699.ktx2"
		},
		{
			"uri": "03c40f44.ktx2"
		},
		{
			"uri": "b1f6bb94.ktx2"
		},
		{
			"uri": "85f774dd.ktx2"
		},
		{
			"uri": "bc0fdecd.ktx2"
		},
		{
			"uri": "bebc4e6c.ktx2"
		},
		{
			"uri": "5779e050.ktx2"
		},
		{
			"uri": "2f214a80.ktx2"
		},
		{
			"uri": "d43e78cb.ktx2"
		},
		{
			"uri": "3cfe788b.ktx2"
		}
	],
	"textures": [
		{
			"extensions": {
				"KHR_texture_basisu": {
					"source": 0
				}
			}
		},
		{
			"extensions": {
				"KHR_texture_basisu": {
					"source": 1
				}
			}
		},
		{
			"extensions": {
				"KHR_texture_basisu": {
					"source": 2
				}
			}
		},
		{
			"extensions": {
				"KHR_texture_basisu": {
					"source": 3
				}
			}
		},
		{
			"extensions": {
				"KHR_texture_basisu": {
					"source": 4
				}
			}
		},
		{
			"extensions": {
				"KHR_texture_basisu": {
					"source": 5
				}
			}
		},
		{
			"extensions": {
				"KHR_texture_basisu": {
					"source": 6
				}
			}
		},
		{
			"extensions": {
				"KHR_texture_basisu": {
					"source": 7
				}
			}
		},
		{
			"extensions": {
				"KHR_texture_basisu": {
					"source": 8
				}
			}
		},
		{
			"extensions": {
				"KHR_texture_basisu": {
					"source": 9
				}
			}
		}
	]
}
